<?xml version="1.0" encoding="UTF-8" standalone="no"?>
<!-- Created with Inkscape (http://www.inkscape.org/) -->

<svg
   version="1.1"
   id="svg2"
   xml:space="preserve"
   width="256.992"
   height="256.992"
   viewBox="0 0 256.992 256.992"
   sodipodi:docname="03372b51d6a95883e5731f410d3db0bc.eps"
   xmlns:inkscape="http://www.inkscape.org/namespaces/inkscape"
   xmlns:sodipodi="http://sodipodi.sourceforge.net/DTD/sodipodi-0.dtd"
   xmlns="http://www.w3.org/2000/svg"
   xmlns:svg="http://www.w3.org/2000/svg"><defs
     id="defs6" /><sodipodi:namedview
     id="namedview4"
     pagecolor="#ffffff"
     bordercolor="#666666"
     borderopacity="1.0"
     inkscape:pageshadow="2"
     inkscape:pageopacity="0.0"
     inkscape:pagecheckerboard="0" /><g
     id="g8"
     inkscape:groupmode="layer"
     inkscape:label="ink_ext_XXXXXX"
     transform="matrix(1.3333333,0,0,-1.3333333,0,256.99199)"><g
       id="g10"
       transform="scale(0.1)"><path
         d="M 0,1927.44 H 1927.44 V 0 H 0 v 1927.44"
         style="fill:#ffffff;fill-opacity:1;fill-rule:evenodd;stroke:none"
         id="path12" /><path
         d="m 641.277,1071.1 c 16.457,11.39 5.067,25.32 -13.922,27.85 -18.988,2.53 -46.835,1.26 -59.496,-8.86 -21.519,-16.46 -27.847,-1.27 -27.847,15.19 0,22.79 0,63.29 0,125.32 0,62.02 -29.114,88.6 -48.102,97.47 -18.984,8.86 -84.812,-5.07 -112.66,-21.52 -107.594,-63.3 -283.5469,-243.05 -298.7383,-259.5 -15.1875,-16.46 -46.832,-51.898 -51.8945,-78.484 -8.1445,-42.73 36.707,-91.136 73.4138,-91.136 36.711,0 107.598,44.304 127.852,63.289 20.254,18.992 -3.797,43.039 -13.926,54.433 -8.859,6.328 -13.922,20.258 -3.797,30.378 45.57,53.17 194.938,178.48 206.328,187.35 11.399,8.85 32.914,24.05 31.653,-2.54 -1.692,-35.43 -7.598,-153.16 -10.129,-201.27 -74.684,-62.019 -189.875,-130.375 -201.27,-135.437 -11.39,-5.063 -8.859,-15.192 -6.328,-18.988 5.484,-8.227 32.91,-35.442 70.887,-31.649 37.976,3.801 82.277,43.039 91.14,53.168 8.86,10.125 16.454,6.328 15.192,-3.797 -11.395,-100.004 -97.469,-437.98 -106.332,-484.812 -8.86,-46.84 48.101,-44.309 81.012,-32.914 32.914,11.39 59.394,29.714 69.621,68.355 11.394,43.035 82.281,418.988 79.746,556.965 24.054,22.789 91.144,79.749 107.597,91.139 v 0 0"
         style="fill:#231f20;fill-opacity:1;fill-rule:evenodd;stroke:none"
         id="path14" /><path
         d="m 1869.78,1400.54 c -24.05,-18.99 -134.18,-115.19 -159.49,-134.18 -25.33,-18.98 -57.55,-48.84 -77.22,-32.91 -13.29,10.76 -7.6,46.84 0,65.82 7.59,18.99 27.84,72.16 35.44,87.35 7.59,15.18 -1.27,39.24 -15.19,41.77 -13.93,2.53 -34.18,-2.53 -43.04,-17.72 -4.43,-6.96 -16.46,-8.87 -15.82,5.06 0.63,13.92 3.17,51.27 -18.36,68.98 -21.51,17.73 -50.74,8.12 -70.25,-20.88 -23.42,-34.81 -36.08,-96.83 1.27,-106.33 9.49,-1.89 15.19,-10.12 8.22,-23.42 -6.96,-13.29 -62.02,-131.01 -86.07,-167.72 -24.06,-36.71 -44.31,-51.9 -54.43,-43.04 -10.13,8.86 1.89,54.43 62.66,113.93 8.86,7.59 8.22,18.98 3.79,26.58 -4.43,7.6 -25.95,9.49 -41.14,2.53 -15.19,-6.96 -23.42,-12.02 -32.91,-18.35 -9.49,-6.33 -15.82,-6.33 -19.62,-0.63 -3.8,5.69 -8.86,18.35 41.14,48.73 8.23,5.06 15.83,7.59 32.28,6.33 16.46,-1.27 21.52,5.69 25.95,11.39 4.43,5.69 17.09,22.78 21.52,32.28 4.43,9.5 0.63,18.35 -13.92,19.62 -14.56,1.27 -62.03,1.27 -120.89,-44.94 -29.75,-23.41 -48.11,-56.33 -45.57,-74.68 2.53,-18.36 4.42,-36.71 43.67,-39.24 12.66,-0.64 12.02,-13.92 6.33,-21.52 -5.7,-7.6 -18.99,-19.62 -25.95,-36.08 -5.07,-12.66 -32.16,-52.11 -43.04,-70.25 -13.29,-22.15 -36.08,-25.95 -34.81,5.69 1.9,16.46 2.53,53.8 1.26,68.99 10.13,31.65 79.75,327.85 86.08,373.43 5.06,24.05 -8.86,50.62 -22.78,51.89 -13.93,1.27 -73.42,-29.11 -93.68,-151.9 -20.25,-122.78 -26.58,-151.9 -26.58,-183.54 -49.37,2.53 -88.61,-30.38 -106.33,-83.55 -17.72,-53.16 -35.44,-116.46 -46.83,-150.63 -11.4,-34.181 -21.52,-54.435 -34.181,-51.9 -12.66,2.531 -6.328,55.7 -1.266,82.28 5.063,26.58 12.657,69.62 17.727,96.2 5.06,26.58 -7.6,31.65 -18.996,30.38 -11.391,-1.27 -77.211,-34.18 -96.199,-116.45 -3.797,-17.73 -24.051,-26.59 -21.52,-2.53 2.531,24.04 3.797,40.5 -15.191,40.5 -10.203,0 -35.442,-13.93 -50.633,-50.63 -15.188,-36.71 -51.898,-111.398 -77.215,-159.5 -25.32,-48.102 -54.433,-79.746 -69.621,-67.09 -15.191,12.66 21.52,75.953 32.914,91.141 15.188,11.394 43.035,32.914 35.441,48.101 -7.593,15.192 -48.101,8.864 -60.761,-2.531 -12.656,-12.656 -30.379,-20.25 -37.973,-12.656 -7.598,7.594 10.125,32.91 25.317,49.367 15.187,16.458 29.113,34.178 51.898,24.048 8.863,-5.06 26.582,1.27 35.441,12.66 8.864,11.39 29.118,31.65 26.586,41.77 -2.531,10.13 -18.992,18.99 -45.57,16.46 -26.586,-2.54 -73.422,-6.33 -136.715,-97.473 -18.984,-35.442 -8.855,-74.68 17.723,-74.68 13.926,0 25.32,-16.457 15.191,-30.379 -10.125,-13.929 -44.304,-72.156 -8.859,-111.394 35.441,-39.242 93.668,-8.86 118.988,30.379 25.317,39.238 62.027,106.328 72.152,124.05 6.329,11.395 15.188,5.067 13.926,-3.796 -1.269,-8.86 5.653,-52.145 12.656,-67.09 9.493,-20.254 31.012,-20.887 37.977,1.265 6.961,21.52 43.668,125.95 61.391,145.571 5.699,5.697 10.761,3.797 9.496,-4.43 -1.266,-8.23 -4.43,-56.961 8.859,-79.113 13.293,-22.153 32.91,-41.774 60.757,-16.457 27.85,25.316 36.08,54.429 42.41,69.621 3.17,7.594 12.11,9.328 13.92,1.898 6.96,-28.48 89.25,-67.722 122.16,49.998 1.26,10.13 13.92,13.92 17.72,2.53 3.79,-11.39 15.19,-25.313 34.17,-24.047 18.99,1.265 60.77,31.647 78.49,74.687 3.79,10.13 15.19,6.32 21.51,1.26 6.34,-5.06 30.39,-20.25 53.17,-11.39 22.79,8.86 58.23,37.98 88.61,93.67 30.38,55.7 75.95,149.37 87.34,177.22 6.33,16.46 18.99,10.13 15.83,-2.53 -5.7,-17.72 -32.29,-119.62 10.75,-154.43 43.04,-34.82 113.93,25.31 135.45,45.57 21.52,20.25 136.71,121.52 165.82,150.63 15.19,15.19 1.27,49.37 -22.78,30.38 z m -700.01,-313.93 c -10.13,-24.05 -35.45,-74.68 -55.7,-67.09 -20.25,7.6 -14.77,52.11 -3.79,83.55 9.63,27.59 43.04,73.42 63.29,67.09 16.45,-12.66 6.33,-59.5 -3.8,-83.55 v 0 0"
         style="fill:#231f20;fill-opacity:1;fill-rule:evenodd;stroke:none"
         id="path16" /><path
         d="m 1784.32,1552.11 c -26.07,0 -48.14,-20.06 -48.14,-47.27 0,-27.45 22.07,-47.51 48.14,-47.51 25.82,0 47.89,20.06 47.89,47.51 0,27.21 -22.07,47.27 -47.89,47.27 z m 0,-86.88 c -21.69,0 -38.61,16.8 -38.61,39.61 0,22.44 16.92,39.37 38.61,39.37 21.44,0 38.36,-16.93 38.36,-39.37 0,-22.81 -16.92,-39.61 -38.36,-39.61 v 0 0"
         style="fill:#231f20;fill-opacity:1;fill-rule:evenodd;stroke:none"
         id="path18" /><path
         d="m 1791.98,1501.46 c 8.02,1 14.16,5.26 14.16,15.04 0,10.78 -6.39,15.55 -19.3,15.55 v 0 h -20.81 v -54.66 h 8.27 v 23.69 h 9.53 l 14.42,-23.69 h 9.28 z m -17.68,6.64 v 16.92 h 11.29 v 0 c 5.77,0 11.91,-1.25 11.91,-8.02 0,-8.39 -6.27,-8.9 -13.29,-8.9 v 0 h -9.91 v 0"
         style="fill:#231f20;fill-opacity:1;fill-rule:evenodd;stroke:none"
         id="path20" /></g></g></svg>
