<?xml version="1.0" encoding="UTF-8" standalone="no"?>
<!-- Created with Inkscape (http://www.inkscape.org/) -->

<svg
   version="1.1"
   id="svg2"
   xml:space="preserve"
   width="715.66266"
   height="449.8046"
   viewBox="0 0 715.66266 449.8046"
   sodipodi:docname="624fcfd9c35530b550f2df25f521b8b4.eps"
   xmlns:inkscape="http://www.inkscape.org/namespaces/inkscape"
   xmlns:sodipodi="http://sodipodi.sourceforge.net/DTD/sodipodi-0.dtd"
   xmlns="http://www.w3.org/2000/svg"
   xmlns:svg="http://www.w3.org/2000/svg"><defs
     id="defs6" /><sodipodi:namedview
     id="namedview4"
     pagecolor="#ffffff"
     bordercolor="#666666"
     borderopacity="1.0"
     inkscape:pageshadow="2"
     inkscape:pageopacity="0.0"
     inkscape:pagecheckerboard="0" /><g
     id="g8"
     inkscape:groupmode="layer"
     inkscape:label="ink_ext_XXXXXX"
     transform="matrix(1.3333333,0,0,-1.3333333,0,449.8046)"><g
       id="g10"
       transform="scale(0.1)"><path
         d="m 1259.25,2564.37 c 96.44,0 174.62,78.18 174.62,174.58 0,96.45 -78.18,174.62 -174.62,174.62 -96.4,0 -174.58,-78.17 -174.58,-174.62 0,-96.4 78.18,-174.58 174.58,-174.58"
         style="fill:#231f20;fill-opacity:1;fill-rule:nonzero;stroke:none"
         id="path12" /><path
         d="m 969.145,2348.76 c 0,0 0,246.78 0,373.45 0,126.66 -125.422,242.11 -222.235,212.97 C 650.098,2906.04 245.156,2782.2 228.391,2774.67 211.621,2767.13 0,2685.18 0,2453.7 L 3.08594,947.512 c 0,0 9.24996,-151.242 166.67606,-148.153 0,0 46.273,0 120.351,40.141 0,0 182.387,99.602 194.434,104.93 12.055,5.34 111.121,37.05 114.23,-98.75 V 0 l 299.375,95.6719 c 0,0 0,725.6801 0,750.0081 0,50.922 36.637,303.03 166.658,407.38 8.04,6.7 70.55,47.3 126.53,-27.75 55.97,-75.05 104.96,-86.43 104.96,-86.43 0,0 60.38,-26.61 114.19,64.82 3.22,6.32 97.56,162.5 101.84,169.73 4.28,7.24 18.43,27.82 58.67,24.72 0,0 98.73,6.16 83.33,-132.75 0,0 459.12,139.28 496.88,160.5 5.97,2.36 181.33,72.67 287.03,234.58 0,0 31.5,46.47 71.03,43.19 7.2,0 104.93,-6.15 77.15,-135.79 0,0 444.57,136.07 469.13,148.17 53.04,21.77 191.53,79.22 188.28,240.71 1.53,47.75 -11.33,131.35 -80.26,191.37 -3.9,3.92 -305.88,226.52 -308.63,228.38 -26.33,22.45 -40.05,73.04 3.09,126.58 0,0 33.93,49.39 83.35,46.27 0,0 37.72,1.82 95.63,-74.06 7.73,-7.71 50.58,-64.76 80.24,-71 0,0 24.78,-7.91 55.54,21.61 75.15,65.24 114.2,67.9 114.2,67.9 0,0 108.04,30.88 108.04,-92.58 0,0 0,-235.04 0,-259.29 0,-56.82 74.58,-230.47 243.83,-222.18 0,0 58.65,6.15 114.21,21.6 l 182.11,58.64 c 0,0 228.58,68.82 308.61,216.01 0,0 37.88,74.05 92.62,74.1 0,0 95.7,12.35 86.42,-132.72 l 259.25,86.4 v 626.57 c 0,0 -7.24,74.07 80.22,74.07 86.19,0 83.34,-67.91 83.34,-67.91 0,0 0,-1269.48 0,-1296.27 0,-36.51 38.29,-149.71 163.58,-148.16 0,0 351.86,3.03 351.86,302.48 0,22.41 0,114.19 0,114.19 l -89.5,-30.86 v -108.04 c 0,0 5.67,-72.94 -77.16,-77.16 -7.5,-1.49 -89.25,1.36 -86.41,80.24 v 1586.44 c 0,0 -6.18,74.07 -80.26,74.07 0,0 -67.92,6.15 -120.36,-86.45 -52.47,-92.58 -70.98,-163.58 -142,-163.58 0,0 -84.39,-9.87 -83.31,64.85 v 80.21 l -265.42,-86.4 c 0,0 0,-294.49 0,-305.56 0,-75.66 -56.96,-452.4 -157.45,-453.69 -6.98,-1 -101.31,-14.14 -104.9,80.26 0,0 -0.18,322.87 0,354.9 2.45,48.05 -34.71,190.97 -154.33,175.95 l -108.01,-21.64 c 0,0 0,-744.74 0,-768.51 0,-23.76 -8.46,-136.94 -135.8,-141.94 -11.59,-1.86 -135.81,3.08 -135.81,123.46 v 499.97 c 0,0 -6.21,89.52 83.32,95.69 l 3.13,129.61 c 0,0 -271.51,-61.69 -398.17,-290.1 -15.11,-16.27 -46.56,-30.87 -67.9,-30.87 -12.96,0 -74.12,3.74 -77.17,64.81 0.18,14.39 0,83.37 0,83.37 l -447.53,-148.18 c 0,0 -175.91,-55.54 -175.91,-234.57 0,0 -0.07,-123.56 77.14,-182.1 l 311.75,-234.58 c 0,0 53.52,-37.88 27.76,-101.85 -3.4,-10.91 -39.99,-84.66 -114.2,-86.39 -14.41,-1.7 -61.85,0.01 -89.51,70.98 0,0 -24.68,92.6 -104.93,64.81 0,0 -149.99,-52.49 -160.48,-55.55 -10.49,-3.05 -98.78,-18.51 -98.78,86.4 0,0 0,320.08 0,345.7 0,25.61 -31.76,171.97 -154.34,166.69 0,0 -70.97,-6.19 -132.69,-33.97 v -151.24 c 0,0 83.33,12.33 83.33,-95.67 v -521.61 c 0,0 3.87,-130.36 -132.72,-132.71 -113.81,1.21 -132.7,110.2 -132.7,123.45 -1.11,73.85 3.06,1663.58 3.06,1663.58 l -271.57,-104.96 3.08,-1138.87 c 0,0 -16.38,-369.91 -120.39,-512.34 -30.33,-41.08 -135.52,-41.08 -145.06,49.38 v 586.41 l -265.42,-83.32 c 0,0 0,-197.88 0,-237.65 0,-39.77 -36.89,-511.4 -172.374,-504.54 -17.203,-0.41 -53.641,18.5 -54.023,99.48 l 1.71,574.53 -259.894,-92.34 c 0,0 -2.524,-315.95 -3.082,-333.34 -7.992,-101.41 6.293,-558.61 -296.305,-558.61 0,0 -74.062,-3.08 -74.062,86.41 v 1277.76 c 0,0 8.508,144.35 120.386,194.44 0,0 114.618,40.85 138.856,49.4 24.238,8.56 117.305,0 117.305,-101.86 v -324.05 l 327.168,101.85"
         style="fill:#231f20;fill-opacity:1;fill-rule:nonzero;stroke:none"
         id="path14" /><path
         d="m 5237.86,3269.7 h 20.64 c 17.43,0 23.51,5.52 23.51,16.86 0,11.33 -7.25,15.12 -24.69,15.12 h -19.46 z m 0,-70.04 h -23.85 v 120.62 h 45.64 c 30.22,0 46.8,-9.59 46.8,-35.75 0,-22.09 -13.39,-30.81 -29.07,-32.27 l 29.07,-52.6 h -26.47 l -27.01,51.44 h -15.11 z m 19.17,145.32 c -45.92,0 -81.96,-35.46 -81.96,-85.16 0,-49.7 36.04,-85.16 81.96,-85.16 45.34,0 81.96,35.46 81.96,85.16 0,49.7 -36.62,85.16 -81.96,85.16 z m -110.45,-85.16 c 0,65.4 52.02,107.84 110.45,107.84 58.43,0 110.44,-42.44 110.44,-107.84 0,-65.68 -52.01,-107.83 -110.44,-107.83 -58.43,0 -110.45,42.15 -110.45,107.83"
         style="fill:#231f20;fill-opacity:1;fill-rule:nonzero;stroke:none"
         id="path16" /></g></g></svg>
