<?xml version="1.0" encoding="UTF-8" standalone="no"?>
<!-- Created with Inkscape (http://www.inkscape.org/) -->

<svg
   version="1.1"
   id="svg2"
   xml:space="preserve"
   width="257.00827"
   height="257.0083"
   viewBox="0 0 257.00827 257.0083"
   sodipodi:docname="6947b0836e30638d0e519a71ac2ca9bb.eps"
   xmlns:inkscape="http://www.inkscape.org/namespaces/inkscape"
   xmlns:sodipodi="http://sodipodi.sourceforge.net/DTD/sodipodi-0.dtd"
   xmlns="http://www.w3.org/2000/svg"
   xmlns:svg="http://www.w3.org/2000/svg"><defs
     id="defs6" /><sodipodi:namedview
     id="namedview4"
     pagecolor="#ffffff"
     bordercolor="#666666"
     borderopacity="1.0"
     inkscape:pageshadow="2"
     inkscape:pageopacity="0.0"
     inkscape:pagecheckerboard="0" /><g
     id="g8"
     inkscape:groupmode="layer"
     inkscape:label="ink_ext_XXXXXX"
     transform="matrix(1.3333333,0,0,-1.3333333,-0.75572931,257.35466)"><g
       id="g10"
       transform="scale(0.1)"><path
         d="M 5.66797,1930.16 H 1933.23 V 2.59766 H 5.66797 V 1930.16"
         style="fill:#ffffff;fill-opacity:1;fill-rule:evenodd;stroke:none"
         id="path12" /><path
         d="M 153.07,1246.15 C 286.051,1088.13 295.223,894.641 253.227,744.738 363.602,805.605 472.875,864.117 582,918.086 c 20.098,3.762 41.957,-4.117 28.93,-23.555 C 458.949,817.723 311.375,732.836 165.031,645.77 c 106.246,241.753 104.25,380.4 -11.961,600.38 z m 845.637,-151.67 c 275.903,107.95 616.433,172.62 899.623,62.58 12.95,-8.04 5.34,-32.04 -10.88,-28.13 -267.91,104.09 -577.49,41.59 -839.08,-46.83 -10.46,7.54 -38.26,6.06 -49.663,12.38"
         style="fill:#918f90;fill-opacity:1;fill-rule:nonzero;stroke:none"
         id="path14" /><path
         d="m 851.547,1066.77 h 37.965 c 22.933,0 41.84,-16 34.375,-47.62 l -4.184,-17.74 H 843.27 c -3.301,-13.988 -14.282,-40.578 4.179,-42.742 14.262,0.367 17.418,28.957 39.477,31.566 l 74.031,-0.468 35.383,37.544 h -34.578 c -5.778,0 -15.477,-4.38 -22.782,-23.72 -1.828,-5.551 -9.351,-6.758 -8.472,-0.25 3.5,10.75 10.012,61.7 55.422,61.69 h 113.29 c 2.75,-0.07 3.64,-1.46 2.45,-3.34 l -85.12,-88.252 h 44.86 c 7.8,0 19.61,21.328 27.08,43.292 1.83,5.17 7.11,5.8 6.28,1.67 -7.17,-26.845 -4.88,-79.701 -39.08,-79.701 H 914.984 c -1.304,-0.008 -1.578,0.567 -0.386,1.871 l 32.672,34.672 c -8.7,1.008 -19.403,1.426 -29.915,-2.062 -23.457,-18.188 -14.558,-34.344 -58.023,-34.344 h -34.934 c -12.531,-1.641 -76.843,0.004 -80.906,-0.078 -4.238,-0.086 -39.347,-3.57 -35.637,20.887 1.321,7.238 7.254,40.21 10.235,49.785 1.586,13.41 1.047,20.63 -10.695,20.68 -17.071,2.05 -19.961,-42.497 -20.954,-47.258 -3.214,-15.422 -3.753,-22.891 -9.355,-32.993 -7.148,-5.601 -15.555,-11.207 -25.234,-12.152 -24.278,0 -48.571,-0.019 -72.852,-0.019 -13.227,0 -20.77,2.39 -27.703,13.265 -11.008,-12.449 -22.379,-15.664 -36.606,-15.664 -15.753,0 -36.339,15.258 -31.179,34.207 4.918,18.141 16.59,25.641 31.91,31.054 21.898,4.93 47.59,9.98 51.742,27.58 2.344,12.68 -13.223,13.33 -18.754,3.01 -2.441,-4.53 -12.758,-16.35 -20.469,-16.39 -3.125,-0.35 -30.199,-0.57 -40.921,-0.62 -3.02,-23.478 -12.844,-57.614 -37.547,-71.728 -25.602,-14.621 -46.785,-2.914 -58.52,14.7 -7.199,-8.493 -15.543,-16.985 -24.328,-18.403 H 210.918 c -8.563,0.207 -10.348,8.403 1.191,10.063 32.457,0.812 38.793,31.066 40.778,38.789 l 29.035,123.049 c 1.652,7.72 9.594,37.98 -22.477,38.79 -10.757,1.65 -5.109,9.85 3.551,10.06 H 388.75 c 8.559,-0.21 10.344,-8.41 -1.207,-10.06 -32.449,-0.81 -38.781,-31.07 -40.77,-38.79 L 319.367,987.551 c -0.969,-4.524 -3.773,-16.789 0.258,-26.324 3.262,-7.805 19.328,-4.754 21.996,6.511 L 374.004,1105 c 4.105,17.41 -21.352,16.3 -16.422,25.23 l 55.594,-0.18 c 16.344,-4.88 13.312,-21.1 11.609,-28.98 l -12.984,-53.69 c 9.383,12.14 21.125,16.52 38.672,16.52 22.824,0 36.007,-14.29 37.113,-36.54 18.727,-0.49 26.375,26.67 43.605,33.75 12.969,5.34 25.844,5.95 39.918,4.94 17.254,-1.24 37.579,-0.81 44.875,-17.54 2.895,-6.63 6.043,-13.79 3.266,-25.57 -2.414,-10.22 -18.344,-60.198 -9.937,-62.311 4.953,-1.234 13.226,-3.891 16.5,4.223 l 16.082,70.778 c 1.152,5.03 2.101,15.95 -5.34,18.41 -8.637,2.86 -19.336,3.96 -15.34,11.07 l 62.234,-0.13 c 18.821,-3.21 16.946,-14.94 15.879,-20.14 l 0.317,-4.03 c 3.796,-1.1 15.371,24.74 41.507,24.74 25.547,0 41.235,-3.7 31.895,-52.8 -1.84,-9.89 -6.609,-25.137 -9.051,-39.437 -1.277,-7.465 -7.699,-17.348 26.496,-13.555 -10.808,17.23 -2.113,38.305 2.93,59.672 6.148,26.03 33.035,47.34 58.125,47.34 z m -4.121,-48.89 c 2.258,9.57 3.887,24.25 17.519,24.25 14.926,0 3.758,-17.34 7.504,-24.25 z M 560.219,999.871 c -8.824,-14.101 -38.594,-11.965 -31.125,-34.453 2.004,-2.789 3.929,-4.484 8.14,-4.484 18.309,0 22.274,26.371 22.985,38.937 z M 420.848,1034 c 22.496,0 6.257,-68.848 -16.246,-68.848 -22.493,0 -6.262,68.848 16.246,68.848"
         style="fill:#231f20;fill-opacity:1;fill-rule:evenodd;stroke:none"
         id="path16" /></g></g></svg>
