<?xml version="1.0" encoding="UTF-8" standalone="no"?>
<!-- Created with Inkscape (http://www.inkscape.org/) -->

<svg
   version="1.1"
   id="svg2"
   xml:space="preserve"
   width="358.82343"
   height="82.089012"
   viewBox="0 0 358.82343 82.089012"
   sodipodi:docname="9d88f21be83d3782c992dc379826ae60.eps"
   xmlns:inkscape="http://www.inkscape.org/namespaces/inkscape"
   xmlns:sodipodi="http://sodipodi.sourceforge.net/DTD/sodipodi-0.dtd"
   xmlns="http://www.w3.org/2000/svg"
   xmlns:svg="http://www.w3.org/2000/svg"><defs
     id="defs6" /><sodipodi:namedview
     id="namedview4"
     pagecolor="#ffffff"
     bordercolor="#666666"
     borderopacity="1.0"
     inkscape:pageshadow="2"
     inkscape:pageopacity="0.0"
     inkscape:pagecheckerboard="0" /><g
     id="g8"
     inkscape:groupmode="layer"
     inkscape:label="ink_ext_XXXXXX"
     transform="matrix(1.3333333,0,0,-1.3333333,1.0797867e-4,82.089011)"><g
       id="g10"
       transform="scale(0.1)"><path
         d="m 547.719,479.504 c 23.351,49.75 39.699,74.449 99.648,71 C 589.316,412.051 497.52,191.355 376.32,94.5508 357.367,79.4531 304.168,44.1016 268.668,60.957 199.82,93.5547 252.469,220.754 256.719,296.355 197.367,251.953 150.918,177.551 109.219,109.504 94.0664,84.7578 85.7188,56.1523 69.3711,38.5078 62.5703,31.1523 28.5195,4.50391 9.57031,16.1016 -1.48047,22.8516 -1.13281,73.3477 1.62109,98.3008 12.6719,199.453 72.1211,319.055 117.215,401 88.5703,406.402 35.668,375.953 1.62109,397.25 16.0703,446.703 71.5195,434.902 121.219,457.051 c 37.902,16.953 112.75,95.847 131.551,44.851 5.898,-16.148 -39.75,-66.504 -47.852,-78.5 -52.949,-78.05 -99.398,-156.847 -127.5508,-250.347 59.8008,60.199 72.8048,114.496 139.5038,168.144 21,16.903 93.649,66.106 115.598,41.106 21.398,-24.352 -15.801,-88.25 -23.899,-123.301 -6.754,-29.102 -27.05,-120.949 -8.004,-130.801 18.75,-9.695 77.153,63.152 91.704,82.195 64.898,85.051 106.597,164.907 155.449,269.106"
         style="fill:#000000;fill-opacity:1;fill-rule:nonzero;stroke:none"
         id="path12" /><path
         d="m 2604.62,296.355 c 10.25,-88.855 -114.1,-120.957 -199.3,-127.05 -90.55,-6.453 -171.5,23.75 -151.5,108.351 4.4,18.645 97.64,120.844 15.95,93.446 -9.05,-3.051 -14.56,-4.75 -17.7,-5.598 0.75,1.648 -9,-2.453 0,0 -0.35,-0.852 -3.65,-3.399 -14.2,-9.352 -21.35,-12.05 -38.1,-26.203 -51.8,-41.101 -25.45,-27.602 -53.15,-118.547 -107.65,-108.403 -11.3,2.153 -19.4,18.11 -23.9,18.704 -35.61,4.804 -79.6,-32.004 -103.65,3.75 -30.3,45 33.35,96.55 47.85,134.55 -70.45,25.953 -76.15,-68.652 -131.55,-115.847 -24.75,-21.106 -124.35,-60.453 -139.51,3.699 -36.34,-24.406 -94.95,-56.797 -139.54,-26.152 -43,29.55 -20.8,95.703 0,134.55 -40,-2.597 -40.5,-42.453 -55.8,-63.547 -28.86,-39.753 -104.75,-117.402 -179.4,-74.753 -11.25,6.453 -18.1,30.898 -27.9,33.652 -0.65,0.195 -35.25,-5.703 -43.85,-11.199 -9.6,-6.203 -6.46,-22.805 -15.9,-29.907 -57.6,-42.996 -56.81,32.102 -43.85,71.008 4.85,14.696 24.3,58.145 19.9,63.543 -11.15,13.653 -38.5,-0.496 -51.8,-7.5 -23.56,-12.398 -38.35,-37.801 -55.8,-63.543 -18.65,-27.453 -30.26,-60.703 -43.85,-71.008 -51.6,-38.992 -81.05,1.25 -51.85,59.805 -36.95,-23.398 -22.4,-58.75 -59.801,-82.207 -30.153,-18.941 -80.199,-23.848 -119.551,-11.191 -12.75,4.043 -32.551,26.25 -43.848,26.144 -19.504,-0.195 -43.453,-38.191 -71.754,-37.394 -27.347,0.8 -42.5,24.941 -47.847,41.144 -23.203,-34.551 -184.5,-130.4998 -187.348,-29.894 -1.953,68.547 86.098,180.75 171.399,213 14.101,5.297 31.199,3.75 43.851,7.5 27.399,8 68.649,28.398 79.695,-11.25 15.555,-55.45 -61.148,-109.356 -59.75,-156.953 55.856,26.453 95,97.199 127.555,160.703 18.301,35.699 18.149,79 83.695,67.246 9.704,-45 43.356,-175.696 95.654,-123.301 17.45,17.449 29.9,67.203 47.85,108.355 22.7,51.95 52.95,117.043 95.64,149.497 25.91,19.652 83.81,36 95.71,-7.454 8.95,-32.796 -21.6,-85.894 -31.9,-104.644 -16.6,-30.203 -38.85,-52.902 -55.8,-78.504 73.6,42.402 124.3,-31.699 91.7,-100.895 53.2,12.7 53,110.2 83.7,171.899 20.9,42.144 90,162.945 163.4,145.75 21.94,-5.102 38.64,-36.25 35.9,-67.25 -4.15,-47.051 -44.4,-99.152 -83.7,-145.754 -28.51,-33.75 -114.5,-101.996 -103.65,-127.047 22.85,-52.898 105.55,72.399 115.59,89.699 14.81,25.45 22.8,64.352 63.81,59.75 11.85,-1.297 20.69,-15.199 27.9,-14.949 18.5,0.75 66.15,47.25 83.7,11.25 7.65,-15.699 -76.5,-100.301 -55.8,-138.297 22.95,-42.16 86.6,30.996 103.64,52.344 10.5,13.203 23.36,33.602 35.86,52.305 5.44,8.148 20.5,43.55 35.89,48.597 6.86,2.2 45.96,-1.25 51.81,-14.949 8.7,-20.402 -96.45,-133.453 -63.8,-149.5 29.25,-14.355 81.54,76.301 87.7,85.949 21,32.852 29.55,99.649 79.75,89.703 12.55,-2.5 11.65,-21.8 23.9,-26.152 39.1,-13.949 114.75,45.399 115.6,-18.703 0.2,-12.445 -148.5,-171.547 -43.85,-130.797 26.8,10.449 44.1,39.043 67.8,70.996 20.75,28.055 44.39,76.305 55.8,82.203 15.95,8.352 63.8,9.551 55.8,-18.652 22.85,3.254 129.3,61.004 163.45,22.402 20.09,-22.75 -23.21,-66.949 -35.9,-85.953 -41.15,-61.492 -69.45,-135.75 59.8,-123.301 81.1,7.754 130.55,55.957 187.35,78.457 z m -1132.1,156.946 c 9.5,11.902 74.8,79.801 43.85,100.902 -0.9,0.649 -10.85,0.449 -11.96,0 -49.09,-19.551 -83.89,-118.898 -103.64,-175.601 27.05,9.449 44.44,40.546 71.75,74.699 z m -338.8,-82.199 c 33.49,58.351 90.5,114.351 99.65,183.101 -50.1,-27.801 -86.7,-120.504 -99.65,-183.101 z m -259.099,-149.5 c 27.395,-19.598 87.149,2.05 79.695,26.203 -21.25,-13.75 -48.648,-21.703 -79.695,-26.203 z m -8,44.851 c 85.047,-13.848 102.149,59.102 47.848,89.699 -12.149,-33.449 -32.551,-59.199 -47.848,-89.699 z M 623.465,206.648 c 43.101,38.801 74.801,76.86 87.703,130.801 -40.5,-6.441 -64.648,-18.347 -91.699,-48.543 -12.653,-14.148 -63.199,-91.25 -43.848,-104.66 13.949,-9.648 41.797,16.953 47.844,22.402"
         style="fill:#000000;fill-opacity:1;fill-rule:nonzero;stroke:none"
         id="path14" /><path
         d="m 2684.32,176.746 c 39.55,-60.594 -107.75,-34.09 -43.85,3.75 14.45,8.559 36.9,6.953 43.85,-3.75"
         style="fill:#000000;fill-opacity:1;fill-rule:nonzero;stroke:none"
         id="path16" /><path
         d="m 1479.69,30.3125 v 13.2813 h 66.09 V 12.1953 C 1539.36,8.97266 1530.03,6.13281 1517.83,3.67969 1505.63,1.21875 1493.27,0 1480.75,0 c -15.89,0 -29.76,1.72656 -41.58,5.18359 -11.83,3.46875 -20.71,8.41801 -26.66,14.85551 -5.95,6.4336 -8.92,13.4453 -8.92,21.0078 0,8.2187 3.32,15.5156 9.95,21.8906 6.64,6.3867 16.35,11.2891 29.14,14.6914 9.74,2.6133 21.87,3.9336 36.38,3.9336 18.87,0 33.6,-2.043 44.22,-6.1406 10.61,-4.1055 17.42,-9.7696 20.47,-16.9844 l -30.47,-2.9687 c -2.15,3.8554 -6.17,6.9023 -12.09,9.1484 -5.9,2.2266 -13.3,3.3516 -22.15,3.3516 -13.41,0 -24.08,-2.2149 -32.01,-6.629 -7.91,-4.414 -11.87,-10.957 -11.87,-19.6523 0,-9.3516 4.01,-16.3828 12.05,-21.0742 8.04,-4.6836 18.56,-7.0195 31.58,-7.0195 6.44,0 12.9,0.6523 19.37,1.9609 6.49,1.3086 12.05,2.8906 16.68,4.7578 v 10 h -35.15"
         style="fill:#231f20;fill-opacity:1;fill-rule:nonzero;stroke:none"
         id="path18" /><path
         d="m 1573.9,80.1563 h 30.62 V 37.4688 c 0,-6.7774 0.38,-11.168 1.14,-13.1836 1.31,-3.2227 4.44,-5.8086 9.39,-7.7618 4.94,-1.9531 11.7,-2.9296 20.27,-2.9296 8.72,0 15.29,0.9257 19.71,2.7617 4.42,1.8593 7.09,4.1211 7.99,6.8086 0.89,2.6836 1.35,7.1562 1.35,13.3906 v 43.6016 h 30.62 V 38.7617 c 0,-9.457 -0.83,-16.1562 -2.49,-20.0625 -1.66,-3.9023 -4.71,-7.1953 -9.16,-9.88279 -4.45,-2.69532 -10.41,-4.82422 -17.87,-6.42578 C 1658.01,0.792969 1648.27,0 1636.26,0 c -14.5,0 -25.51,0.867188 -33,2.60547 -7.49,1.73828 -13.42,3.99609 -17.76,6.78125 -4.35,2.76958 -7.22,5.67968 -8.61,8.72658 -1.99,4.5156 -2.99,11.1836 -2.99,20 v 42.043"
         style="fill:#231f20;fill-opacity:1;fill-rule:nonzero;stroke:none"
         id="path20" /><path
         d="M 1726.45,1.40625 V 80.1563 h 30.62 V 1.40625 h -30.62"
         style="fill:#231f20;fill-opacity:1;fill-rule:nonzero;stroke:none"
         id="path22" /><path
         d="M 1820.74,1.40625 V 66.875 h -45.15 v 13.2813 h 120.62 V 66.875 h -44.84 V 1.40625 h -30.63"
         style="fill:#231f20;fill-opacity:1;fill-rule:nonzero;stroke:none"
         id="path24" /><path
         d="m 2037.49,1.40625 h -33.41 l -13.24,17.81255 h -60.9 L 1917.38,1.40625 h -32.55 l 59.15,78.75005 h 32.56 z M 1981.11,32.5 1959.91,61.7188 1939.32,32.5 Z"
         style="fill:#231f20;fill-opacity:1;fill-rule:nonzero;stroke:none"
         id="path26" /><path
         d="M 2053.79,1.40625 V 80.1563 h 64.54 c 16.23,0 28.03,-0.7149 35.38,-2.1211 7.36,-1.4258 13.24,-3.9414 17.67,-7.5586 4.42,-3.6328 6.63,-7.7735 6.63,-12.4414 0,-5.918 -3.35,-10.8008 -10.05,-14.6563 -6.71,-3.8594 -16.72,-6.2812 -30.05,-7.293 6.62,-1.9921 12.1,-4.1992 16.43,-6.582 4.31,-2.4062 10.13,-6.6601 17.46,-12.7656 l 18.55,-15.33205 h -36.7 l -22.17,17.14065 c -7.89,6.0898 -13.28,9.9375 -16.18,11.5195 -2.9,1.5938 -5.97,2.6758 -9.23,3.2617 -3.24,0.5899 -8.38,0.8907 -15.44,0.8907 h -6.22 V 1.40625 Z m 30.62,45.31255 h 22.72 c 14.73,0 23.92,0.3242 27.6,0.9648 3.66,0.6641 6.53,1.7812 8.6,3.3633 2.08,1.5976 3.12,3.582 3.12,5.9726 0,2.6602 -1.37,4.8243 -4.11,6.4649 -2.73,1.6445 -6.58,2.6758 -11.56,3.125 -2.49,0.1758 -9.96,0.2656 -22.4,0.2656 h -23.97 V 46.7188"
         style="fill:#231f20;fill-opacity:1;fill-rule:nonzero;stroke:none"
         id="path28" /><path
         d="m 2199.14,27.1875 29.84,1.5625 c 1.8,-5.2148 5.43,-9.043 10.9,-11.4922 5.48,-2.4453 12.87,-3.664 22.17,-3.664 9.84,0 17.27,1.0859 22.27,3.25 4.98,2.1679 7.48,4.7109 7.48,7.621 0,1.875 -1.05,3.4571 -3.15,4.7618 -2.09,1.3086 -5.75,2.4609 -10.96,3.4179 -3.58,0.6485 -11.73,1.7891 -24.43,3.4297 -16.35,2.1016 -27.83,4.6953 -34.42,7.7656 -9.28,4.3125 -13.92,9.5899 -13.92,15.7969 0,4.0039 2.19,7.7539 6.56,11.2305 4.36,3.4766 10.65,6.1367 18.86,7.9609 8.21,1.8242 18.14,2.7344 29.76,2.7344 18.97,0 33.26,-2.1758 42.85,-6.5117 9.59,-4.3477 14.62,-10.1406 15.1,-17.3945 l -30.63,-0.625 c -1.29,4.0546 -4.08,6.9609 -8.36,8.7382 -4.27,1.7813 -10.68,2.668 -19.22,2.668 -8.82,0 -15.73,-0.9492 -20.72,-2.8437 -3.21,-1.2305 -4.82,-2.8516 -4.82,-4.9024 0,-1.8516 1.51,-3.457 4.53,-4.7617 3.85,-1.7031 13.18,-3.4414 28.01,-5.2539 14.82,-1.8203 25.78,-3.711 32.89,-5.6641 7.1,-1.9648 12.65,-4.6289 16.68,-8.0312 4.01,-3.3946 6.01,-7.5938 6.01,-12.5782 0,-4.5312 -2.41,-8.7656 -7.23,-12.7148 -4.83,-3.94531 -11.65,-6.89062 -20.48,-8.80469 C 2285.88,0.96875 2274.88,0 2261.72,0 c -19.17,0 -33.89,2.3125 -44.16,6.94141 -10.27,4.62889 -16.42,11.38669 -18.42,20.24609"
         style="fill:#231f20;fill-opacity:1;fill-rule:nonzero;stroke:none"
         id="path30" /></g></g></svg>
